<?xml version="1.0" encoding="UTF-8" standalone="no"?><svg width="108" height="20" viewBox="0 0 108 20" fill="none" xmlns="http://www.w3.org/2000/svg">
<path d="M7.51562 12.5181H2.93799V9.88135H7.51562C8.26432 9.88135 8.87061 9.75928 9.33447 9.51514C9.80648 9.26286 10.1523 8.92106 10.3721 8.48975C10.5918 8.05029 10.7017 7.5498 10.7017 6.98828C10.7017 6.44303 10.5918 5.93441 10.3721 5.4624C10.1523 4.9904 9.80648 4.60791 9.33447 4.31494C8.87061 4.02197 8.26432 3.87549 7.51562 3.87549H4.03662V19H0.679688V1.22656H7.51562C8.89909 1.22656 10.0791 1.47477 11.0557 1.97119C12.0404 2.45947 12.7891 3.139 13.3018 4.00977C13.8226 4.8724 14.083 5.8571 14.083 6.96387C14.083 8.11133 13.8226 9.1001 13.3018 9.93018C12.7891 10.7603 12.0404 11.3991 11.0557 11.8467C10.0791 12.2943 8.89909 12.5181 7.51562 12.5181ZM16.7197 1.22656H23.1772C24.5282 1.22656 25.6878 1.43001 26.6562 1.83691C27.6247 2.24382 28.3693 2.84603 28.8901 3.64355C29.411 4.44108 29.6714 5.42171 29.6714 6.58545C29.6714 7.50505 29.5086 8.30257 29.1831 8.97803C28.8576 9.65348 28.3978 10.2191 27.8037 10.6748C27.2178 11.1305 26.526 11.4886 25.7285 11.749L24.6787 12.2861H18.978L18.9536 9.63721H23.2139C23.9056 9.63721 24.4793 9.51514 24.9351 9.271C25.3908 9.02686 25.7326 8.68913 25.9604 8.25781C26.1965 7.8265 26.3145 7.33415 26.3145 6.78076C26.3145 6.18669 26.2005 5.67399 25.9727 5.24268C25.7448 4.80322 25.3989 4.46549 24.9351 4.22949C24.4712 3.99349 23.8853 3.87549 23.1772 3.87549H20.0767V19H16.7197V1.22656ZM26.7539 19L22.6401 11.041L26.1924 11.0288L30.355 18.8291V19H26.7539ZM47.0054 9.66162V10.5771C47.0054 11.9199 46.8263 13.1284 46.4683 14.2026C46.1102 15.2687 45.6016 16.1761 44.9424 16.9248C44.2832 17.6735 43.4979 18.2472 42.5864 18.646C41.675 19.0448 40.6618 19.2441 39.5469 19.2441C38.4482 19.2441 37.4391 19.0448 36.5195 18.646C35.6081 18.2472 34.8187 17.6735 34.1514 16.9248C33.484 16.1761 32.9673 15.2687 32.6011 14.2026C32.2349 13.1284 32.0518 11.9199 32.0518 10.5771V9.66162C32.0518 8.31071 32.2349 7.10221 32.6011 6.03613C32.9673 4.97005 33.48 4.06266 34.1392 3.31396C34.7983 2.55713 35.5837 1.97933 36.4951 1.58057C37.4147 1.1818 38.4238 0.982422 39.5225 0.982422C40.6374 0.982422 41.6506 1.1818 42.562 1.58057C43.4735 1.97933 44.2588 2.55713 44.918 3.31396C45.5853 4.06266 46.098 4.97005 46.4561 6.03613C46.8223 7.10221 47.0054 8.31071 47.0054 9.66162ZM43.6118 10.5771V9.63721C43.6118 8.66878 43.5223 7.81836 43.3433 7.08594C43.1642 6.34538 42.8997 5.72282 42.5498 5.21826C42.1999 4.7137 41.7686 4.33529 41.2559 4.08301C40.7432 3.82259 40.1654 3.69238 39.5225 3.69238C38.8714 3.69238 38.2936 3.82259 37.7891 4.08301C37.2926 4.33529 36.8695 4.7137 36.5195 5.21826C36.1696 5.72282 35.901 6.34538 35.7139 7.08594C35.5348 7.81836 35.4453 8.66878 35.4453 9.63721V10.5771C35.4453 11.5374 35.5348 12.3879 35.7139 13.1284C35.901 13.869 36.1696 14.4956 36.5195 15.0083C36.8776 15.5129 37.3089 15.8953 37.8135 16.1558C38.318 16.4162 38.8958 16.5464 39.5469 16.5464C40.1979 16.5464 40.7757 16.4162 41.2803 16.1558C41.7848 15.8953 42.208 15.5129 42.5498 15.0083C42.8997 14.4956 43.1642 13.869 43.3433 13.1284C43.5223 12.3879 43.6118 11.5374 43.6118 10.5771ZM60.25 13.1528H63.6069C63.5174 14.341 63.1878 15.3949 62.6182 16.3145C62.0485 17.2259 61.255 17.9421 60.2378 18.4629C59.2205 18.9837 57.9876 19.2441 56.5391 19.2441C55.4242 19.2441 54.4191 19.0488 53.5239 18.6582C52.6369 18.2594 51.876 17.6938 51.2412 16.9614C50.6146 16.2209 50.1344 15.3338 49.8008 14.3003C49.4671 13.2586 49.3003 12.0908 49.3003 10.7969V9.44189C49.3003 8.14795 49.4712 6.98014 49.813 5.93848C50.1548 4.89681 50.6431 4.00977 51.2778 3.27734C51.9207 2.53678 52.6898 1.96712 53.585 1.56836C54.4883 1.1696 55.4974 0.970215 56.6123 0.970215C58.0609 0.970215 59.2856 1.23877 60.2866 1.77588C61.2876 2.30485 62.0648 3.0332 62.6182 3.96094C63.1715 4.88867 63.5052 5.95475 63.6191 7.15918H60.2622C60.1971 6.41048 60.0343 5.77572 59.7739 5.25488C59.5216 4.73405 59.1392 4.33936 58.6265 4.0708C58.1219 3.79411 57.4505 3.65576 56.6123 3.65576C55.9613 3.65576 55.3875 3.77783 54.8911 4.02197C54.4028 4.26611 53.9959 4.63232 53.6704 5.12061C53.3449 5.60075 53.1007 6.20296 52.938 6.92725C52.7752 7.64339 52.6938 8.47347 52.6938 9.41748V10.7969C52.6938 11.7002 52.7671 12.5099 52.9136 13.2261C53.0601 13.9422 53.2879 14.5485 53.5972 15.0449C53.9064 15.5413 54.3052 15.9198 54.7935 16.1802C55.2817 16.4406 55.8636 16.5708 56.5391 16.5708C57.361 16.5708 58.0283 16.4406 58.541 16.1802C59.0618 15.9198 59.4565 15.5373 59.7251 15.0327C60.0018 14.5282 60.1768 13.9015 60.25 13.1528ZM77.9868 16.3633V19H68.5386V16.3633H77.9868ZM69.564 1.22656V19H66.207V1.22656H69.564ZM76.7539 8.56299V11.1387H68.5386V8.56299H76.7539ZM77.9502 1.22656V3.87549H68.5386V1.22656H77.9502ZM92.0981 16.3633V19H82.6499V16.3633H92.0981ZM83.6753 1.22656V19H80.3184V1.22656H83.6753ZM90.8652 8.56299V11.1387H82.6499V8.56299H90.8652ZM92.0615 1.22656V3.87549H82.6499V1.22656H92.0615ZM99.7397 19H95.9067L95.9312 16.3633H99.7397C100.773 16.3633 101.64 16.1354 102.34 15.6797C103.04 15.2158 103.569 14.5526 103.927 13.6899C104.285 12.8192 104.464 11.7775 104.464 10.5649V9.64941C104.464 8.71354 104.362 7.88753 104.159 7.17139C103.955 6.45524 103.654 5.85303 103.255 5.36475C102.865 4.87646 102.381 4.50618 101.803 4.25391C101.225 4.00163 100.562 3.87549 99.813 3.87549H95.8335V1.22656H99.813C101.001 1.22656 102.083 1.42594 103.06 1.82471C104.045 2.22347 104.895 2.7972 105.611 3.5459C106.336 4.28646 106.889 5.1735 107.271 6.20703C107.662 7.24056 107.857 8.39616 107.857 9.67383V10.5649C107.857 11.8345 107.662 12.9901 107.271 14.0317C106.889 15.0653 106.336 15.9523 105.611 16.6929C104.895 17.4334 104.041 18.0031 103.048 18.4019C102.055 18.8006 100.952 19 99.7397 19ZM97.7866 1.22656V19H94.4297V1.22656H97.7866Z" fill="white"/>
</svg>
